<?xml version="1.0" encoding="UTF-8" standalone="no"?>
<!-- Created with Inkscape (http://www.inkscape.org/) -->

<svg
   xmlns:dc="http://purl.org/dc/elements/1.1/"
   xmlns:cc="http://creativecommons.org/ns#"
   xmlns:rdf="http://www.w3.org/1999/02/22-rdf-syntax-ns#"
   xmlns:svg="http://www.w3.org/2000/svg"
   xmlns="http://www.w3.org/2000/svg"
   xmlns:sodipodi="http://sodipodi.sourceforge.net/DTD/sodipodi-0.dtd"
   xmlns:inkscape="http://www.inkscape.org/namespaces/inkscape"
   width="524.40942"
   height="744.09448"
   id="svg7404"
   version="1.1"
   inkscape:version="0.48.4 r9939"
   sodipodi:docname="New document 29">
  <defs
     id="defs7406" />
  <sodipodi:namedview
     id="base"
     pagecolor="#ffffff"
     bordercolor="#666666"
     borderopacity="1.0"
     inkscape:pageopacity="0.0"
     inkscape:pageshadow="2"
     inkscape:zoom="0.98994949"
     inkscape:cx="328.10995"
     inkscape:cy="430.25588"
     inkscape:document-units="px"
     inkscape:current-layer="layer1"
     showgrid="false"
     showguides="false"
     inkscape:guide-bbox="true"
     inkscape:window-width="1920"
     inkscape:window-height="1025"
     inkscape:window-x="0"
     inkscape:window-y="30"
     inkscape:window-maximized="1">
    <sodipodi:guide
       orientation="0,1"
       position="-41.921331,482.85292"
       id="guide8640" />
    <sodipodi:guide
       orientation="1,0"
       position="470.71429,298.57143"
       id="guide8642" />
  </sodipodi:namedview>
  <metadata
     id="metadata7409">
    <rdf:RDF>
      <cc:Work
         rdf:about="">
        <dc:format>image/svg+xml</dc:format>
        <dc:type
           rdf:resource="http://purl.org/dc/dcmitype/StillImage" />
        <dc:title></dc:title>
      </cc:Work>
    </rdf:RDF>
  </metadata>
  <g
     inkscape:label="Layer 1"
     inkscape:groupmode="layer"
     id="layer1"
     transform="translate(0,-308.26769)">
    <g
       id="g8665">
      <g
         transform="translate(358.00004,569.2908)"
         style="fill:#000000"
         id="barcode">
        <rect
           style="fill:#ffffff"
           x="0"
           y="0"
           width="114"
           height="177"
           id="rect7500" />
        <rect
           x="0"
           y="0"
           width="3"
           height="150"
           id="rect7502" />
        <rect
           x="9"
           y="0"
           width="3"
           height="150"
           id="rect7504" />
        <rect
           x="15"
           y="0"
           width="6"
           height="150"
           id="rect7506" />
        <rect
           x="24"
           y="0"
           width="6"
           height="150"
           id="rect7508" />
        <rect
           x="33"
           y="0"
           width="3"
           height="150"
           id="rect7510" />
        <rect
           x="39"
           y="0"
           width="3"
           height="150"
           id="rect7512" />
        <rect
           x="45"
           y="0"
           width="3"
           height="150"
           id="rect7514" />
        <rect
           x="51"
           y="0"
           width="6"
           height="150"
           id="rect7516" />
        <rect
           x="63"
           y="0"
           width="3"
           height="150"
           id="rect7518" />
        <rect
           x="69"
           y="0"
           width="6"
           height="150"
           id="rect7520" />
        <rect
           x="78"
           y="0"
           width="3"
           height="150"
           id="rect7522" />
        <rect
           x="87"
           y="0"
           width="3"
           height="150"
           id="rect7524" />
        <rect
           x="93"
           y="0"
           width="6"
           height="150"
           id="rect7526" />
        <rect
           x="102"
           y="0"
           width="6"
           height="150"
           id="rect7528" />
        <rect
           x="111"
           y="0"
           width="3"
           height="150"
           id="rect7530" />
        <text
           style="font-size:24px;text-anchor:middle;fill:#000000;font-family:Helvetica"
           x="57"
           y="177"
           font-size="24.0"
           id="text7532">*D*</text>
      </g>
      <g
         transform="translate(38.714255,569.30043)"
         style="fill:#000000"
         id="barcode-7">
        <rect
           style="fill:#ffffff"
           x="0"
           y="0"
           width="114"
           height="177"
           id="rect7646" />
        <rect
           x="0"
           y="0"
           width="3"
           height="150"
           id="rect7648" />
        <rect
           x="9"
           y="0"
           width="3"
           height="150"
           id="rect7650" />
        <rect
           x="15"
           y="0"
           width="6"
           height="150"
           id="rect7652" />
        <rect
           x="24"
           y="0"
           width="6"
           height="150"
           id="rect7654" />
        <rect
           x="33"
           y="0"
           width="3"
           height="150"
           id="rect7656" />
        <rect
           x="39"
           y="0"
           width="6"
           height="150"
           id="rect7658" />
        <rect
           x="48"
           y="0"
           width="6"
           height="150"
           id="rect7660" />
        <rect
           x="57"
           y="0"
           width="3"
           height="150"
           id="rect7662" />
        <rect
           x="66"
           y="0"
           width="3"
           height="150"
           id="rect7664" />
        <rect
           x="72"
           y="0"
           width="3"
           height="150"
           id="rect7666" />
        <rect
           x="78"
           y="0"
           width="3"
           height="150"
           id="rect7668" />
        <rect
           x="87"
           y="0"
           width="3"
           height="150"
           id="rect7670" />
        <rect
           x="93"
           y="0"
           width="6"
           height="150"
           id="rect7672" />
        <rect
           x="102"
           y="0"
           width="6"
           height="150"
           id="rect7674" />
        <rect
           x="111"
           y="0"
           width="3"
           height="150"
           id="rect7676" />
        <text
           style="font-size:24px;text-anchor:middle;fill:#000000;font-family:Helvetica"
           x="57"
           y="177"
           font-size="24.0"
           id="text7678">*C*</text>
      </g>
      <g
         id="g8566">
        <g
           id="barcode-1"
           style="fill:#000000"
           transform="translate(358.00004,333.86218)">
          <rect
             id="rect7792"
             height="177"
             width="114"
             y="0"
             x="0"
             style="fill:#ffffff" />
          <rect
             id="rect7794"
             height="150"
             width="3"
             y="0"
             x="0" />
          <rect
             id="rect7796"
             height="150"
             width="3"
             y="0"
             x="9" />
          <rect
             id="rect7798"
             height="150"
             width="6"
             y="0"
             x="15" />
          <rect
             id="rect7800"
             height="150"
             width="6"
             y="0"
             x="24" />
          <rect
             id="rect7802"
             height="150"
             width="3"
             y="0"
             x="33" />
          <rect
             id="rect7804"
             height="150"
             width="3"
             y="0"
             x="39" />
          <rect
             id="rect7806"
             height="150"
             width="6"
             y="0"
             x="45" />
          <rect
             id="rect7808"
             height="150"
             width="3"
             y="0"
             x="54" />
          <rect
             id="rect7810"
             height="150"
             width="3"
             y="0"
             x="63" />
          <rect
             id="rect7812"
             height="150"
             width="6"
             y="0"
             x="69" />
          <rect
             id="rect7814"
             height="150"
             width="3"
             y="0"
             x="78" />
          <rect
             id="rect7816"
             height="150"
             width="3"
             y="0"
             x="87" />
          <rect
             id="rect7818"
             height="150"
             width="6"
             y="0"
             x="93" />
          <rect
             id="rect7820"
             height="150"
             width="6"
             y="0"
             x="102" />
          <rect
             id="rect7822"
             height="150"
             width="3"
             y="0"
             x="111" />
          <text
             id="text7824"
             font-size="24.0"
             y="177"
             x="57"
             style="font-size:24px;text-anchor:middle;fill:#000000;font-family:Helvetica">*B*</text>
        </g>
        <g
           id="barcode-8"
           style="fill:#000000"
           transform="translate(38.714255,331.00501)">
          <rect
             id="rect7938"
             height="177"
             width="114"
             y="0"
             x="0"
             style="fill:#ffffff" />
          <rect
             id="rect7940"
             height="150"
             width="3"
             y="0"
             x="0" />
          <rect
             id="rect7942"
             height="150"
             width="3"
             y="0"
             x="9" />
          <rect
             id="rect7944"
             height="150"
             width="6"
             y="0"
             x="15" />
          <rect
             id="rect7946"
             height="150"
             width="6"
             y="0"
             x="24" />
          <rect
             id="rect7948"
             height="150"
             width="3"
             y="0"
             x="33" />
          <rect
             id="rect7950"
             height="150"
             width="6"
             y="0"
             x="39" />
          <rect
             id="rect7952"
             height="150"
             width="3"
             y="0"
             x="48" />
          <rect
             id="rect7954"
             height="150"
             width="3"
             y="0"
             x="54" />
          <rect
             id="rect7956"
             height="150"
             width="3"
             y="0"
             x="63" />
          <rect
             id="rect7958"
             height="150"
             width="6"
             y="0"
             x="69" />
          <rect
             id="rect7960"
             height="150"
             width="3"
             y="0"
             x="78" />
          <rect
             id="rect7962"
             height="150"
             width="3"
             y="0"
             x="87" />
          <rect
             id="rect7964"
             height="150"
             width="6"
             y="0"
             x="93" />
          <rect
             id="rect7966"
             height="150"
             width="6"
             y="0"
             x="102" />
          <rect
             id="rect7968"
             height="150"
             width="3"
             y="0"
             x="111" />
          <text
             id="text7970"
             font-size="24.0"
             y="177"
             x="57"
             style="font-size:24px;text-anchor:middle;fill:#000000;font-family:Helvetica">*A*</text>
        </g>
      </g>
      <g
         transform="translate(317.7857,827.8719)"
         style="fill:#000000"
         id="barcode-5">
        <rect
           style="fill:#ffffff"
           x="0"
           y="0"
           width="153"
           height="177"
           id="rect8259" />
        <rect
           x="0"
           y="0"
           width="3"
           height="150"
           id="rect8261" />
        <rect
           x="9"
           y="0"
           width="3"
           height="150"
           id="rect8263" />
        <rect
           x="15"
           y="0"
           width="6"
           height="150"
           id="rect8265" />
        <rect
           x="24"
           y="0"
           width="6"
           height="150"
           id="rect8267" />
        <rect
           x="33"
           y="0"
           width="3"
           height="150"
           id="rect8269" />
        <rect
           x="39"
           y="0"
           width="3"
           height="150"
           id="rect8271" />
        <rect
           x="45"
           y="0"
           width="3"
           height="150"
           id="rect8273" />
        <rect
           x="51"
           y="0"
           width="6"
           height="150"
           id="rect8275" />
        <rect
           x="60"
           y="0"
           width="3"
           height="150"
           id="rect8277" />
        <rect
           x="69"
           y="0"
           width="6"
           height="150"
           id="rect8279" />
        <rect
           x="78"
           y="0"
           width="6"
           height="150"
           id="rect8281" />
        <rect
           x="87"
           y="0"
           width="3"
           height="150"
           id="rect8283" />
        <rect
           x="93"
           y="0"
           width="6"
           height="150"
           id="rect8285" />
        <rect
           x="102"
           y="0"
           width="3"
           height="150"
           id="rect8287" />
        <rect
           x="111"
           y="0"
           width="3"
           height="150"
           id="rect8289" />
        <rect
           x="117"
           y="0"
           width="3"
           height="150"
           id="rect8291" />
        <rect
           x="126"
           y="0"
           width="3"
           height="150"
           id="rect8293" />
        <rect
           x="132"
           y="0"
           width="6"
           height="150"
           id="rect8295" />
        <rect
           x="141"
           y="0"
           width="6"
           height="150"
           id="rect8297" />
        <rect
           x="150"
           y="0"
           width="3"
           height="150"
           id="rect8299" />
        <text
           style="font-size:24px;text-anchor:middle;fill:#000000;font-family:Helvetica"
           x="76.5"
           y="177"
           font-size="24.0"
           id="text8301">*NO*</text>
      </g>
      <g
         transform="translate(38.999961,827.8719)"
         style="fill:#000000"
         id="barcode-2">
        <rect
           style="fill:#ffffff"
           x="0"
           y="0"
           width="192"
           height="177"
           id="rect8440" />
        <rect
           x="0"
           y="0"
           width="3"
           height="150"
           id="rect8442" />
        <rect
           x="9"
           y="0"
           width="3"
           height="150"
           id="rect8444" />
        <rect
           x="15"
           y="0"
           width="6"
           height="150"
           id="rect8446" />
        <rect
           x="24"
           y="0"
           width="6"
           height="150"
           id="rect8448" />
        <rect
           x="33"
           y="0"
           width="3"
           height="150"
           id="rect8450" />
        <rect
           x="39"
           y="0"
           width="6"
           height="150"
           id="rect8452" />
        <rect
           x="51"
           y="0"
           width="3"
           height="150"
           id="rect8454" />
        <rect
           x="57"
           y="0"
           width="6"
           height="150"
           id="rect8456" />
        <rect
           x="66"
           y="0"
           width="3"
           height="150"
           id="rect8458" />
        <rect
           x="72"
           y="0"
           width="3"
           height="150"
           id="rect8460" />
        <rect
           x="78"
           y="0"
           width="6"
           height="150"
           id="rect8462" />
        <rect
           x="87"
           y="0"
           width="3"
           height="150"
           id="rect8464" />
        <rect
           x="93"
           y="0"
           width="6"
           height="150"
           id="rect8466" />
        <rect
           x="105"
           y="0"
           width="3"
           height="150"
           id="rect8468" />
        <rect
           x="111"
           y="0"
           width="3"
           height="150"
           id="rect8470" />
        <rect
           x="117"
           y="0"
           width="3"
           height="150"
           id="rect8472" />
        <rect
           x="123"
           y="0"
           width="6"
           height="150"
           id="rect8474" />
        <rect
           x="132"
           y="0"
           width="3"
           height="150"
           id="rect8476" />
        <rect
           x="138"
           y="0"
           width="6"
           height="150"
           id="rect8478" />
        <rect
           x="150"
           y="0"
           width="3"
           height="150"
           id="rect8480" />
        <rect
           x="156"
           y="0"
           width="3"
           height="150"
           id="rect8482" />
        <rect
           x="165"
           y="0"
           width="3"
           height="150"
           id="rect8484" />
        <rect
           x="171"
           y="0"
           width="6"
           height="150"
           id="rect8486" />
        <rect
           x="180"
           y="0"
           width="6"
           height="150"
           id="rect8488" />
        <rect
           x="189"
           y="0"
           width="3"
           height="150"
           id="rect8490" />
        <text
           style="font-size:24px;text-anchor:middle;fill:#000000;font-family:Helvetica"
           x="96"
           y="177"
           font-size="24.0"
           id="text8492">*YES*</text>
      </g>
      <rect
         transform="translate(0,308.26769)"
         y="-0.38794351"
         x="1.0101526"
         height="745.49255"
         width="523.25897"
         id="rect8663"
         style="fill:none;stroke:#000000;stroke-width:0.5;stroke-linecap:butt;stroke-miterlimit:4;stroke-dasharray:none" />
    </g>
  </g>
</svg>
