<?xml version="1.0" encoding="UTF-8" standalone="no"?>
<!-- Created with Inkscape (http://www.inkscape.org/) -->

<svg
   xmlns:dc="http://purl.org/dc/elements/1.1/"
   xmlns:cc="http://creativecommons.org/ns#"
   xmlns:rdf="http://www.w3.org/1999/02/22-rdf-syntax-ns#"
   xmlns:svg="http://www.w3.org/2000/svg"
   xmlns="http://www.w3.org/2000/svg"
   xmlns:xlink="http://www.w3.org/1999/xlink"
   xmlns:sodipodi="http://sodipodi.sourceforge.net/DTD/sodipodi-0.dtd"
   xmlns:inkscape="http://www.inkscape.org/namespaces/inkscape"
   width="524.40942"
   height="744.09448"
   id="svg2"
   version="1.1"
   inkscape:version="0.48.4 r9939"
   sodipodi:docname="LED.svg">
  <defs
     id="defs4">
    <radialGradient
       inkscape:collect="always"
       xlink:href="#path2991_1_"
       id="radialGradient6052"
       gradientUnits="userSpaceOnUse"
       gradientTransform="matrix(0.0431,1.2342,2.2046,-0.077,127.3611,-352.7568)"
       cx="341.95209"
       cy="119.9434"
       r="91.143997" />
    <radialGradient
       inkscape:collect="always"
       xlink:href="#path3796_1_"
       id="radialGradient6054"
       gradientUnits="userSpaceOnUse"
       gradientTransform="matrix(-1.3948,1.3422,1.1419,1.2976,1160.7717,-945.002)"
       cx="678.49219"
       cy="157.2773"
       r="96.047401" />
    <radialGradient
       inkscape:collect="always"
       xlink:href="#path2991_1_-5"
       id="radialGradient6056"
       gradientUnits="userSpaceOnUse"
       gradientTransform="matrix(0.1683,1.2234,2.1853,-0.3006,65.7343,-319.7948)"
       cx="341.95309"
       cy="119.9429"
       r="91.1436" />
    <radialGradient
       inkscape:collect="always"
       xlink:href="#path2991_1_-2"
       id="radialGradient6058"
       gradientUnits="userSpaceOnUse"
       gradientTransform="matrix(-0.1457,1.2263,-2.1905,-0.2603,1545.5074,-235.5972)"
       cx="346.69531"
       cy="481.9639"
       r="91.144302" />
    <radialGradient
       inkscape:collect="always"
       xlink:href="#path3796_1_-8"
       id="radialGradient6060"
       gradientUnits="userSpaceOnUse"
       gradientTransform="matrix(-1.5833,1.1136,-0.9305,-1.4567,1901.184,54.5908)"
       cx="682.0957"
       cy="441.82419"
       r="96.046898" />
  </defs>
  <sodipodi:namedview
     id="base"
     pagecolor="#ffffff"
     bordercolor="#666666"
     borderopacity="1.0"
     inkscape:pageopacity="0.0"
     inkscape:pageshadow="2"
     inkscape:zoom="0.98994949"
     inkscape:cx="307.07412"
     inkscape:cy="407.16301"
     inkscape:document-units="px"
     inkscape:current-layer="layer1"
     showgrid="false"
     inkscape:window-width="1920"
     inkscape:window-height="1025"
     inkscape:window-x="0"
     inkscape:window-y="30"
     inkscape:window-maximized="1" />
  <metadata
     id="metadata7">
    <rdf:RDF>
      <cc:Work
         rdf:about="">
        <dc:format>image/svg+xml</dc:format>
        <dc:type
           rdf:resource="http://purl.org/dc/dcmitype/StillImage" />
        <dc:title></dc:title>
      </cc:Work>
    </rdf:RDF>
  </metadata>
  <g
     inkscape:label="Layer 1"
     inkscape:groupmode="layer"
     id="layer1"
     transform="translate(0,-308.26769)">
    <g
       id="g6477">
      <rect
         y="306.8696"
         x="0"
         height="747.51288"
         width="526.28949"
         id="rect3946"
         style="fill:none;stroke:#000000;stroke-width:0.5;stroke-linecap:butt;stroke-miterlimit:4;stroke-dasharray:none" />
      <g
         transform="matrix(0.75913581,0,0,0.75913581,163.549,150.5393)"
         id="g6013">
        <g
           inkscape:label="Layer 1"
           id="layer1-7"
           transform="translate(-425.70323,378.30512)">
          <path
             d="m 395.128,328.216 9.512,-22.29 -0.088,-32.169 16.746,-6.413 -49.226,-33.283 -0.835,-28.762 -18.66,-1.151 1.18,40.605 19.948,16.354 -2.966,14.479 -23.219,16.761 -5.16,26.396 29.878,8.445 1.778,2.911 7.813,213.015 16.303,-0.614 -3.004,-214.284 z"
             inkscape:connector-curvature="0"
             sodipodi:nodetypes="ccccccccccccccccc"
             id="path2472"
             style="fill:#4d4d4d;stroke:#000000;stroke-width:1.83319998" />
          <path
             d="m 458.761,543.794 -7.197,-225.687 -1.165,-10.973 -15.252,-0.403 -2.345,-51.578 -49.005,-25.669 -1.46,-21.124 98.079,-4.543 -1.261,44.063 -11.425,14.725 29.145,41.486 0.418,14.38 -21.896,4.023 1.104,219.939 -17.74,1.361 z"
             inkscape:connector-curvature="0"
             sodipodi:nodetypes="ccccccccccccccc"
             id="path2474"
             style="fill:#4d4d4d;stroke:#000000;stroke-width:1.83319998" />
          <path
             d="m 510.539,336.083 c 0,0 -52.69,24.391 -192.064,6.427 -1.938,-8.41 -1.123,-37.28 -1.123,-37.28 l 12.57,-4.458 c 0,0 -1.541,-173.41 0.74,-188.04 -2.071,-18.734 34.562,-63.227 75.188,-63.991 54.141,-1.015 81.22,49.819 80.268,52.7 6.21,16.22 12.679,196.505 12.679,196.505 l 10.856,2.972 0.885,35.16 10e-4,0.005 z"
             enable-background="new    "
             inkscape:connector-curvature="0"
             sodipodi:nodetypes="cccccscccc"
             id="path2470"
             style="opacity:0.78969996;fill:#ff0000;stroke:#ffffff;stroke-width:1.83319998" />
          <radialGradient
             gradientUnits="userSpaceOnUse"
             gradientTransform="matrix(0.0431,1.2342,2.2046,-0.077,127.3611,-352.7568)"
             r="91.143997"
             cy="119.9434"
             cx="341.95209"
             id="path2991_1_">
            <stop
               id="stop5791"
               style="stop-color:#FFFFFF"
               offset="0" />
            <stop
               id="stop5793"
               style="stop-color:#FFFFFF;stop-opacity:0"
               offset="1" />
          </radialGradient>
          <path
             d="m 509.336,335.416 c 0,0 -51.707,24.181 -188.506,6.316 -1.904,-8.344 -1.114,-36.984 -1.114,-36.984 l 12.336,-4.42 c 0,0 -1.566,-172.035 0.668,-186.545 -2.039,-18.586 33.903,-62.719 73.774,-63.46 53.139,-0.99 79.732,49.449 78.797,52.307 6.101,16.093 12.506,194.955 12.506,194.955 l 10.655,2.951 0.88,34.883 0.004,-0.003 z"
             inkscape:connector-curvature="0"
             sodipodi:nodetypes="cccccscccc"
             id="path2991"
             style="fill:url(#radialGradient6052)" />
          <path
             d="m 328.806,303.746 c 0,0 -3.463,0.477 -5.044,1.033 l -5.036,1.775 c 0,0 94.322,13.87 191.158,-4.184 l -1.522,-0.513 c -1.743,-0.588 -5.685,-1.552 -6.896,-1.966 l -172.662,3.854 h 0.002 z"
             enable-background="new    "
             inkscape:connector-curvature="0"
             sodipodi:nodetypes="cscczcc"
             id="path2480"
             style="opacity:0.5952;fill:#cccccc;fill-opacity:0.62239996;stroke:#cccccc;stroke-width:1.83319998;stroke-linecap:round;stroke-linejoin:round" />
          <radialGradient
             gradientUnits="userSpaceOnUse"
             gradientTransform="matrix(-1.3948,1.3422,1.1419,1.2976,1160.7717,-945.002)"
             r="96.047401"
             cy="157.2773"
             cx="678.49219"
             id="path3796_1_">
            <stop
               id="stop5798"
               style="stop-color:#FF0000"
               offset="0" />
            <stop
               id="stop5800"
               style="stop-color:#FF0000;stop-opacity:0"
               offset="1" />
          </radialGradient>
          <path
             d="m 771.51686,446.93576 c 0,40.43976 -42.77769,73.22266 -95.54665,73.22266 -52.76895,0 -95.54664,-32.7829 -95.54664,-73.22266 0,-40.43976 42.77769,-73.22266 95.54664,-73.22266 52.76896,0 95.54665,32.7829 95.54665,73.22266 z"
             enable-background="new    "
             sodipodi:rx="95.546646"
             sodipodi:ry="73.222664"
             sodipodi:type="arc"
             sodipodi:cy="446.93576"
             sodipodi:cx="675.97021"
             id="path3796"
             style="opacity:0.5952;fill:url(#radialGradient6054)" />
        </g>
        <g
           id="g5904"
           transform="matrix(0.98988079,0.14190147,-0.14190147,0.98988079,-238.38193,290.27618)">
          <g
             inkscape:label="Layer 1"
             id="layer1-2">
            <path
               d="m 401.277,330.461 7.199,-23.142 -3.355,-31.994 16.009,-8.08 -52.352,-28.112 -3.752,-28.528 -18.68,0.75 5.298,40.276 21.506,14.242 -1.481,14.706 -21.396,19.033 -2.452,26.785 30.582,5.366 2.064,2.716 29.409,211.119 16.155,-2.268 -24.754,-212.869 z"
               inkscape:connector-curvature="0"
               sodipodi:nodetypes="ccccccccccccccccc"
               id="path2472-7"
               style="fill:#4d4d4d;stroke:#000000;stroke-width:1.83319998" />
            <path
               d="m 486.477,538.46 -30.083,-223.788 -2.273,-10.796 -15.214,1.146 -7.571,-51.073 -51.359,-20.559 -3.599,-20.866 97.11,-14.481 3.222,43.962 -9.87,15.81 33.207,38.311 1.877,14.263 -21.374,6.228 23.437,218.689 -17.51,3.154 z"
               inkscape:connector-curvature="0"
               sodipodi:nodetypes="ccccccccccccccc"
               id="path2474-1"
               style="fill:#4d4d4d;stroke:#000000;stroke-width:1.83319998" />
            <path
               d="m 516.891,326.564 c 0,0 -49.941,29.617 -190.418,25.901 -2.782,-8.169 -4.904,-36.973 -4.904,-36.973 l 12.053,-5.712 c 0,0 -19.146,-172.357 -18.363,-187.143 -3.963,-18.427 27.961,-66.41 68.3,-71.296 53.759,-6.509 85.861,41.312 85.206,44.274 7.824,15.505 32.571,194.202 32.571,194.202 l 11.102,1.853 4.452,34.888 10e-4,0.006 z"
               enable-background="new    "
               inkscape:connector-curvature="0"
               sodipodi:nodetypes="cccccscccc"
               id="path2470-8"
               style="opacity:0.78969996;fill:#ffff8c;stroke:#ffffff;stroke-width:1.83319998" />
            <radialGradient
               gradientUnits="userSpaceOnUse"
               gradientTransform="matrix(0.1683,1.2234,2.1853,-0.3006,65.7343,-319.7948)"
               r="91.1436"
               cy="119.9429"
               cx="341.95309"
               id="path2991_1_-5">
              <stop
                 id="stop5888"
                 style="stop-color:#FFFFFF"
                 offset="0" />
              <stop
                 id="stop5890"
                 style="stop-color:#FFFFFF;stop-opacity:0"
                 offset="1" />
            </radialGradient>
            <path
               style="fill:url(#radialGradient6056)"
               d="m 515.625,326.023 c 0,0 -48.983,29.309 -186.889,25.431 -2.743,-8.108 -4.865,-36.681 -4.865,-36.681 l 11.823,-5.65 c 0,0 -19.031,-170.985 -18.283,-185.647 -3.916,-18.284 27.358,-65.839 66.947,-70.626 52.762,-6.382 84.343,41.095 83.702,44.034 7.703,15.39 32.244,192.676 32.244,192.676 l 10.898,1.854 4.418,34.612 0.005,-0.003 z"
               inkscape:connector-curvature="0"
               sodipodi:nodetypes="cccccscccc"
               id="path2991-3" />
            <path
               d="m 332.812,312.854 c 0,0 -3.397,0.825 -4.913,1.539 l -4.83,2.278 c 0,0 95.242,4.218 189.744,-23.578 l -1.567,-0.355 c -1.794,-0.408 -5.812,-0.967 -7.06,-1.256 l -171.378,21.372 h 0.004 z"
               enable-background="new    "
               inkscape:connector-curvature="0"
               sodipodi:nodetypes="cscczcc"
               id="path2480-9"
               style="opacity:0.5952;fill:#cccccc;fill-opacity:0.62239996;stroke:#cccccc;stroke-width:1.83319998;stroke-linecap:round;stroke-linejoin:round" />
          </g>
          <path
             style="opacity:0.5952;fill:url(#path3796_1_-6)"
             d="m 771.51686,446.93576 c 0,40.43976 -42.77769,73.22266 -95.54665,73.22266 -52.76895,0 -95.54664,-32.7829 -95.54664,-73.22266 0,-40.43976 42.77769,-73.22266 95.54664,-73.22266 52.76896,0 95.54665,32.7829 95.54665,73.22266 z"
             enable-background="new    "
             sodipodi:rx="95.546646"
             sodipodi:ry="73.222664"
             sodipodi:type="arc"
             sodipodi:cy="446.93576"
             sodipodi:cx="675.97021"
             id="path3796-5" />
        </g>
        <g
           inkscape:label="Layer 1"
           id="layer1-75"
           transform="translate(-142.8341,378.72328)">
          <path
             d="m 387.037,327.387 12.802,-20.578 4.822,-31.805 17.528,-3.783 -43.57,-40.405 3.564,-28.553 -18.266,-3.985 -5.03,40.31 17.219,19.207 -5.141,13.856 -25.505,13.022 -9.127,25.3 28.239,12.904 1.313,3.148 -24.785,211.713 16.206,1.881 29.731,-212.232 z"
             inkscape:connector-curvature="0"
             sodipodi:nodetypes="ccccccccccccccccc"
             id="path2472-4"
             style="fill:#4d4d4d;stroke:#000000;stroke-width:1.83319998" />
          <path
             d="m 417.027,550.15 27.328,-224.142 0.523,-11.023 -15.014,-2.725 5.554,-51.333 -44.514,-32.847 1.781,-21.099 97.624,10.477 -7.97,43.354 -13.538,12.809 22.473,45.447 -1.781,14.275 -22.253,0.635 -32.473,217.531 -17.74,-1.359 z"
             inkscape:connector-curvature="0"
             sodipodi:nodetypes="ccccccccccccccc"
             id="path2474-4"
             style="fill:#4d4d4d;stroke:#000000;stroke-width:1.83319998" />
          <path
             d="m 499.896,352.773 c 0,0 -55.796,16.064 -190.795,-22.958 -0.632,-8.607 4.579,-37.014 4.579,-37.014 l 13.104,-2.489 c 0,0 24.939,-171.614 29.426,-185.724 0.812,-18.831 43.806,-57.212 84.072,-51.768 53.662,7.259 72.667,61.629 71.286,64.332 3.662,16.978 -17.456,196.138 -17.456,196.138 l 10.275,4.594 -4.49,34.884 v 0.005 z"
             enable-background="new    "
             inkscape:connector-curvature="0"
             sodipodi:nodetypes="cccccscccc"
             id="path2470-2"
             style="opacity:0.78969996;fill:#00ff00;stroke:#ffffff;stroke-width:1.83319998" />
          <radialGradient
             gradientUnits="userSpaceOnUse"
             gradientTransform="matrix(-0.1457,1.2263,-2.1905,-0.2603,1545.5074,-235.5972)"
             r="91.144302"
             cy="481.9639"
             cx="346.69531"
             id="path2991_1_-2">
            <stop
               id="stop5984"
               style="stop-color:#FFFFFF"
               offset="0" />
            <stop
               id="stop5986"
               style="stop-color:#FFFFFF;stop-opacity:0"
               offset="1" />
          </radialGradient>
          <path
             style="fill:url(#radialGradient6058)"
             d="m 498.809,351.931 c 0,0 -54.791,16.007 -187.262,-22.523 -0.608,-8.538 4.543,-36.722 4.543,-36.722 l 12.866,-2.486 c 0,0 24.705,-170.259 29.127,-184.258 0.821,-18.68 43.077,-56.811 82.594,-51.459 52.668,7.13 71.252,61.037 69.893,63.718 3.573,16.836 -17.392,194.58 -17.392,194.58 l 10.08,4.543 -4.453,34.608 0.004,-0.001 z"
             inkscape:connector-curvature="0"
             sodipodi:nodetypes="cccccscccc"
             id="path2991-6" />
          <path
             d="m 325.227,293.083 c 0,0 -3.496,-0.058 -5.143,0.251 l -5.248,0.985 c 0,0 91.101,28.101 189.558,25.037 l -1.426,-0.739 c -1.633,-0.847 -5.382,-2.401 -6.516,-2.995 l -171.228,-22.54 0.003,0.001 0,0 z"
             enable-background="new    "
             inkscape:connector-curvature="0"
             sodipodi:nodetypes="cscczcc"
             id="path2480-6"
             style="opacity:0.5952;fill:#cccccc;fill-opacity:0.62239996;stroke:#cccccc;stroke-width:1.83319998;stroke-linecap:round;stroke-linejoin:round" />
          <radialGradient
             gradientUnits="userSpaceOnUse"
             gradientTransform="matrix(-1.5833,1.1136,-0.9305,-1.4567,1901.184,54.5908)"
             r="96.046898"
             cy="441.82419"
             cx="682.0957"
             id="path3796_1_-8">
            <stop
               id="stop5991"
               style="stop-color:#00FF00"
               offset="0" />
            <stop
               id="stop5993"
               style="stop-color:#00FF00;stop-opacity:0"
               offset="1" />
          </radialGradient>
          <path
             style="opacity:0.5952;fill:url(#radialGradient6060)"
             d="m 771.51686,446.93576 c 0,40.43976 -42.77769,73.22266 -95.54665,73.22266 -52.76895,0 -95.54664,-32.7829 -95.54664,-73.22266 0,-40.43976 42.77769,-73.22266 95.54664,-73.22266 52.76896,0 95.54665,32.7829 95.54665,73.22266 z"
             enable-background="new    "
             sodipodi:rx="95.546646"
             sodipodi:ry="73.222664"
             sodipodi:type="arc"
             sodipodi:cy="446.93576"
             sodipodi:cx="675.97021"
             id="path3796-3" />
        </g>
      </g>
      <text
         sodipodi:linespacing="125%"
         id="text6062"
         y="361.72369"
         x="71.760086"
         style="font-size:40px;font-style:normal;font-variant:normal;font-weight:normal;font-stretch:normal;line-height:125%;letter-spacing:0px;word-spacing:0px;fill:#000000;fill-opacity:1;stroke:none;font-family:Ubuntu;-inkscape-font-specification:Ubuntu"
         xml:space="preserve"><tspan
           style="font-size:56px"
           y="361.72369"
           x="71.760086"
           id="tspan6064"
           sodipodi:role="line">Flashing Lights</tspan></text>
      <g
         style="fill:#000000"
         transform="translate(49.204712,870.81017)"
         id="barcode">
        <rect
           style="fill:#ffffff"
           x="0"
           y="0"
           width="426"
           height="177"
           id="rect6299" />
        <rect
           x="0"
           y="0"
           width="3"
           height="150"
           id="rect6301" />
        <rect
           x="9"
           y="0"
           width="3"
           height="150"
           id="rect6303" />
        <rect
           x="15"
           y="0"
           width="6"
           height="150"
           id="rect6305" />
        <rect
           x="24"
           y="0"
           width="6"
           height="150"
           id="rect6307" />
        <rect
           x="33"
           y="0"
           width="3"
           height="150"
           id="rect6309" />
        <rect
           x="39"
           y="0"
           width="3"
           height="150"
           id="rect6311" />
        <rect
           x="45"
           y="0"
           width="6"
           height="150"
           id="rect6313" />
        <rect
           x="54"
           y="0"
           width="3"
           height="150"
           id="rect6315" />
        <rect
           x="60"
           y="0"
           width="3"
           height="150"
           id="rect6317" />
        <rect
           x="69"
           y="0"
           width="6"
           height="150"
           id="rect6319" />
        <rect
           x="78"
           y="0"
           width="6"
           height="150"
           id="rect6321" />
        <rect
           x="87"
           y="0"
           width="3"
           height="150"
           id="rect6323" />
        <rect
           x="93"
           y="0"
           width="6"
           height="150"
           id="rect6325" />
        <rect
           x="105"
           y="0"
           width="3"
           height="150"
           id="rect6327" />
        <rect
           x="111"
           y="0"
           width="3"
           height="150"
           id="rect6329" />
        <rect
           x="117"
           y="0"
           width="3"
           height="150"
           id="rect6331" />
        <rect
           x="123"
           y="0"
           width="3"
           height="150"
           id="rect6333" />
        <rect
           x="129"
           y="0"
           width="6"
           height="150"
           id="rect6335" />
        <rect
           x="141"
           y="0"
           width="3"
           height="150"
           id="rect6337" />
        <rect
           x="147"
           y="0"
           width="6"
           height="150"
           id="rect6339" />
        <rect
           x="156"
           y="0"
           width="3"
           height="150"
           id="rect6341" />
        <rect
           x="165"
           y="0"
           width="6"
           height="150"
           id="rect6343" />
        <rect
           x="174"
           y="0"
           width="3"
           height="150"
           id="rect6345" />
        <rect
           x="180"
           y="0"
           width="6"
           height="150"
           id="rect6347" />
        <rect
           x="189"
           y="0"
           width="3"
           height="150"
           id="rect6349" />
        <rect
           x="195"
           y="0"
           width="3"
           height="150"
           id="rect6351" />
        <rect
           x="201"
           y="0"
           width="6"
           height="150"
           id="rect6353" />
        <rect
           x="210"
           y="0"
           width="6"
           height="150"
           id="rect6355" />
        <rect
           x="222"
           y="0"
           width="3"
           height="150"
           id="rect6357" />
        <rect
           x="228"
           y="0"
           width="3"
           height="150"
           id="rect6359" />
        <rect
           x="234"
           y="0"
           width="3"
           height="150"
           id="rect6361" />
        <rect
           x="240"
           y="0"
           width="6"
           height="150"
           id="rect6363" />
        <rect
           x="249"
           y="0"
           width="3"
           height="150"
           id="rect6365" />
        <rect
           x="255"
           y="0"
           width="3"
           height="150"
           id="rect6367" />
        <rect
           x="264"
           y="0"
           width="6"
           height="150"
           id="rect6369" />
        <rect
           x="273"
           y="0"
           width="6"
           height="150"
           id="rect6371" />
        <rect
           x="282"
           y="0"
           width="3"
           height="150"
           id="rect6373" />
        <rect
           x="288"
           y="0"
           width="3"
           height="150"
           id="rect6375" />
        <rect
           x="297"
           y="0"
           width="3"
           height="150"
           id="rect6377" />
        <rect
           x="303"
           y="0"
           width="6"
           height="150"
           id="rect6379" />
        <rect
           x="312"
           y="0"
           width="3"
           height="150"
           id="rect6381" />
        <rect
           x="318"
           y="0"
           width="6"
           height="150"
           id="rect6383" />
        <rect
           x="327"
           y="0"
           width="3"
           height="150"
           id="rect6385" />
        <rect
           x="333"
           y="0"
           width="6"
           height="150"
           id="rect6387" />
        <rect
           x="345"
           y="0"
           width="3"
           height="150"
           id="rect6389" />
        <rect
           x="351"
           y="0"
           width="6"
           height="150"
           id="rect6391" />
        <rect
           x="360"
           y="0"
           width="3"
           height="150"
           id="rect6393" />
        <rect
           x="366"
           y="0"
           width="3"
           height="150"
           id="rect6395" />
        <rect
           x="375"
           y="0"
           width="6"
           height="150"
           id="rect6397" />
        <rect
           x="384"
           y="0"
           width="3"
           height="150"
           id="rect6399" />
        <rect
           x="390"
           y="0"
           width="3"
           height="150"
           id="rect6401" />
        <rect
           x="399"
           y="0"
           width="3"
           height="150"
           id="rect6403" />
        <rect
           x="405"
           y="0"
           width="6"
           height="150"
           id="rect6405" />
        <rect
           x="414"
           y="0"
           width="6"
           height="150"
           id="rect6407" />
        <rect
           x="423"
           y="0"
           width="3"
           height="150"
           id="rect6409" />
        <text
           style="font-size:24px;text-anchor:middle;fill:#000000;font-family:Helvetica"
           x="213"
           y="177"
           font-size="24.0"
           id="text6411">*LED FLASH*</text>
      </g>
    </g>
  </g>
</svg>
